# xmcd
#
# Track frame offsets:
#	150
#	23089
#	40065
#	58147
#	74013
#	91193
#	109930
#	124815
#	145166
#	162610
#	184222
#	196267
#
# Disc length: 2809 seconds
#
# Revision: 0
# Processed by: cddbd v1.5.1PL2 Copyright (c) Steve Scherf et al.
# Submitted via: EasyCDDAExtractor 9.0.0.1
#
DISCID=af0af70c
DTITLE=Various Artist - Songs of the Land
DYEAR=2002
DGENRE=Country
TTITLE0=Graeme CONNORS - The Great Asutralian Dream
TTITLE1=Tania KERNAGHAN - Hobble Chains
TTITLE2=James BLUNDELL and James REYNE - Way Out West
TTITLE3=Sara STORER - A Cowboy's Song
TTITLE4=Adam HARVEY - The Shake of a Hand
TTITLE5=Anne KIRKPATRICK - The Heart of the Land
TTITLE6=Adam BRAND - Last Man Standing
TTITLE7=The Bushwackers - Benath the Southern Cross
TTITLE8=Brendon WALMSLEY - Never never
TTITLE9=The Crosby Sisters - Trouble in the Fields
TTITLE10=Jane SAUNDERS - Dancing in the Rain
TTITLE11=Josh ARNOLD - Hardlivin'
EXTD=
EXTT0=
EXTT1=
EXTT2=
EXTT3=
EXTT4=
EXTT5=
EXTT6=
EXTT7=
EXTT8=
EXTT9=
EXTT10=
EXTT11=
PLAYORDER=
